<svg width="20" height="20" viewBox="0 0 20 20" fill="none" xmlns="http://www.w3.org/2000/svg">
<g clip-path="url(#clip0_0_3803)">
<path d="M15.6202 6.62806C15.2659 3.79367 12.8564 1.66667 10 1.66667C7.14356 1.66667 4.73412 3.79367 4.37983 6.62806L3.54167 13.3333H2.5V15H17.5V13.3333H16.4583L15.6202 6.62806ZM14.7783 13.3333H5.22083L6.03362 6.83478L6.06032 6.65433C6.38701 4.74485 8.04518 3.33333 10 3.33333L10.1824 3.33744C12.1176 3.42477 13.7239 4.89506 13.9664 6.83478L14.7783 13.3333Z" fill="white"/>
<path d="M10 16.6667C9.53976 16.6667 9.16667 16.2936 9.16667 15.8333H7.5C7.5 17.214 8.61929 18.3333 10 18.3333C11.3807 18.3333 12.5 17.214 12.5 15.8333H10.8333C10.8333 16.2936 10.4602 16.6667 10 16.6667Z" fill="white"/>
<circle cx="16" cy="4" r="3.5" fill="#F64C4C" stroke="white"/>
</g>
<defs>
<clipPath id="clip0_0_3803">
<rect width="20" height="20" fill="white"/>
</clipPath>
</defs>
</svg>
