<svg width="16" height="16" viewBox="0 0 16 16" fill="none" xmlns="http://www.w3.org/2000/svg">
<path d="M1.33337 4.00001C1.33337 2.52719 2.52728 1.33334 4.00004 1.33334H12C13.4728 1.33334 14.6667 2.52719 14.6667 4.00001V13.3333C14.6667 14.0697 14.0698 14.6667 13.3334 14.6667H2.66671C1.93033 14.6667 1.33337 14.0697 1.33337 13.3333V4.00001ZM4.00004 2.66668C3.26366 2.66668 2.66671 3.26368 2.66671 4.00001V5.33334H13.3334V4.00001C13.3334 3.26368 12.7364 2.66668 12 2.66668H11.3334V4.00001H10V2.66668H6.00004V4.00001H4.66671V2.66668H4.00004ZM2.66671 13.3333H13.3334V6.66668H2.66671V13.3333Z" fill="#8E8E8E"/>
</svg>
