<svg width="18" height="18" viewBox="0 0 18 18" fill="none" xmlns="http://www.w3.org/2000/svg">
<path d="M5.25 8.25H3.75V6.75H5.25V5.25H6.75V6.75H8.25V8.25H6.75V9.75H5.25V8.25Z" fill="#8E8E8E"/>
<path d="M12.75 6.375C12.75 6.99632 12.2463 7.5 11.625 7.5C11.0037 7.5 10.5 6.99632 10.5 6.375C10.5 5.75368 11.0037 5.25 11.625 5.25C12.2463 5.25 12.75 5.75368 12.75 6.375Z" fill="#8E8E8E"/>
<path d="M13.125 9.75C13.7463 9.75 14.25 9.24632 14.25 8.625C14.25 8.00368 13.7463 7.5 13.125 7.5C12.5037 7.5 12 8.00368 12 8.625C12 9.24632 12.5037 9.75 13.125 9.75Z" fill="#8E8E8E"/>
<path d="M5.75777 15.7501H1.5L1.50133 6.61773C1.51566 5.43657 1.64751 4.82033 1.98934 4.18117C2.3207 3.56157 2.81144 3.07083 3.43103 2.73947C4.0702 2.39764 4.68644 2.26579 5.8676 2.25146H12.1324C13.3136 2.26579 13.9298 2.39764 14.569 2.73947C15.1886 3.07083 15.6793 3.56157 16.0107 4.18117C16.3525 4.82033 16.4843 5.43657 16.4987 6.61773L16.5 6.84596V15.7501H12.2422L11.0422 12.7501H6.957L5.75777 15.7501ZM11.9042 3.75013L5.90764 3.75099C4.94045 3.76018 4.54511 3.8447 4.13843 4.06219C3.78024 4.25375 3.50362 4.53038 3.31206 4.88856C3.10816 5.26983 3.02113 5.64112 3.00347 6.48298L3 6.84596V11.2501H12.0578L13.2577 14.2501H15V6.84596L14.9965 6.48298C14.9812 5.75337 14.9138 5.3772 14.7634 5.04168L14.7272 4.96483L14.6879 4.88856C14.4964 4.53038 14.2198 4.25375 13.8616 4.06219C13.4803 3.85829 13.109 3.77126 12.2672 3.75361L11.9042 3.75013ZM4.74263 14.2501L5.34225 12.7501H2.99925L3.00038 14.2501H4.74263Z" fill="#8E8E8E"/>
</svg>
