<svg width="20" height="20" viewBox="0 0 20 20" fill="none" xmlns="http://www.w3.org/2000/svg">
<g clip-path="url(#clip0_0_3801)">
<path d="M10 0.833334C15.0626 0.833334 19.1667 4.93739 19.1667 10C19.1667 15.0626 15.0626 19.1667 10 19.1667C4.93743 19.1667 0.833374 15.0626 0.833374 10C0.833374 4.93739 4.93743 0.833334 10 0.833334ZM10.8334 17.196C11.2167 16.9301 11.6481 16.4616 12.0724 15.6837C12.7282 14.4815 13.2041 12.7891 13.3108 10.8333H10.8334V17.196ZM9.16671 17.196V10.8333H6.68929C6.796 12.7891 7.27191 14.4815 7.92767 15.6837C8.35194 16.4616 8.78336 16.9301 9.16671 17.196ZM10.8334 9.16667H13.3108C13.2041 7.21086 12.7282 5.51849 12.0724 4.31628C11.6481 3.53844 11.2167 3.06989 10.8334 2.80403V9.16667ZM9.16671 2.80403C8.78336 3.06989 8.35194 3.53844 7.92767 4.31628C7.27191 5.51849 6.796 7.21086 6.68929 9.16667H9.16671V2.80403ZM13.4286 16.6722C15.6121 15.548 17.1724 13.3833 17.4543 10.8333H14.9797C14.8669 13.1282 14.2927 15.1792 13.4286 16.6722ZM14.9797 9.16667H17.4543C17.1724 6.61671 15.6121 4.45205 13.4286 3.32776C14.2927 4.82079 14.8669 6.87179 14.9797 9.16667ZM6.5715 3.32777C4.38796 4.45205 2.8277 6.61671 2.54581 9.16667H5.02042C5.13322 6.87179 5.70736 4.82079 6.5715 3.32777ZM6.5715 16.6722C5.70736 15.1792 5.13323 13.1282 5.02042 10.8333H2.54581C2.8277 13.3833 4.38796 15.548 6.5715 16.6722Z" fill="white"/>
</g>
<defs>
<clipPath id="clip0_0_3801">
<rect width="20" height="20" fill="white"/>
</clipPath>
</defs>
</svg>
