<svg width="16" height="16" viewBox="0 0 16 16" fill="none" xmlns="http://www.w3.org/2000/svg">
<path d="M1.33331 6.55436C1.33331 3.67087 3.67085 1.33333 6.55434 1.33333C9.43783 1.33333 11.7754 3.67087 11.7754 6.55436C11.7754 7.77477 11.3566 8.89738 10.655 9.78636L14.6666 13.798L13.798 14.6667L9.78634 10.655C8.89736 11.3567 7.77475 11.7754 6.55434 11.7754C3.67085 11.7754 1.33331 9.43785 1.33331 6.55436ZM6.55434 2.56181C4.34931 2.56181 2.56179 4.34933 2.56179 6.55436C2.56179 8.75938 4.34931 10.5469 6.55434 10.5469C8.75936 10.5469 10.5469 8.75938 10.5469 6.55436C10.5469 4.34933 8.75936 2.56181 6.55434 2.56181Z" fill="white"/>
</svg>
