<svg width="18" height="18" viewBox="0 0 18 18" fill="none" xmlns="http://www.w3.org/2000/svg">
<g clip-path="url(#clip0_0_3759)">
<path d="M9 12C7.34312 12 6 10.6569 6 9H4.5C4.5 11.4853 6.51471 13.5 9 13.5C11.4853 13.5 13.5 11.4853 13.5 9H12C12 10.6569 10.6569 12 9 12Z" fill="#8E8E8E"/>
<path d="M9.75 7.125C9.75 6.50372 10.2537 6 10.875 6C11.4963 6 12 6.50372 12 7.125C12 7.74628 11.4963 8.25 10.875 8.25C10.2537 8.25 9.75 7.74628 9.75 7.125Z" fill="#8E8E8E"/>
<path d="M7.125 6C6.50368 6 6 6.50372 6 7.125C6 7.74628 6.50368 8.25 7.125 8.25C7.74632 8.25 8.25 7.74628 8.25 7.125C8.25 6.50372 7.74632 6 7.125 6Z" fill="#8E8E8E"/>
<path d="M17.25 9C17.25 13.5564 13.5564 17.25 9 17.25C4.44365 17.25 0.75 13.5564 0.75 9C0.75 4.4436 4.44365 0.75 9 0.75C13.5564 0.75 17.25 4.4436 17.25 9ZM15.75 9C15.75 5.27216 12.7279 2.25 9 2.25C5.27206 2.25 2.25 5.27216 2.25 9C2.25 12.7278 5.27206 15.75 9 15.75C12.7279 15.75 15.75 12.7278 15.75 9Z" fill="#8E8E8E"/>
</g>
<defs>
<clipPath id="clip0_0_3759">
<rect width="18" height="18" fill="white"/>
</clipPath>
</defs>
</svg>
