<svg width="18" height="18" viewBox="0 0 18 18" fill="none" xmlns="http://www.w3.org/2000/svg">
<path d="M8.69691 0.75C7.69 0.75 6.82749 1.49454 6.71024 2.49969L6.59413 3.05582C6.39711 3.94127 6.05734 4.91983 5.44678 5.51931C5.00485 5.95321 4.7625 6.38647 4.63396 6.75H2.25C1.83579 6.75 1.5 7.08579 1.5 7.5V15.75C1.5 16.1642 1.83579 16.5 2.25 16.5H6C6.00461 16.5 6.00922 16.5 6.01384 16.5H12.8613C14.2542 16.5 15.4808 15.5638 15.8158 14.2129L17.2059 8.60798C17.4446 7.64541 16.7001 6.75 15.7358 6.75H10.7714L10.8584 6.16481L10.8588 6.16246C10.9469 5.55659 10.9081 4.9568 10.8639 4.43657L10.8634 4.43066L10.6896 2.55862C10.6001 1.5247 9.72413 0.75 8.69691 0.75ZM4.49998 8.25V15H3V8.25H4.49998ZM6 14.9959V7.456C6.00013 7.45439 6.00028 7.45266 6.00045 7.4508C6.00308 7.4226 6.01108 7.36577 6.0356 7.28765C6.08322 7.13596 6.19981 6.8821 6.49768 6.58964C7.43847 5.66593 7.85178 4.3121 8.05954 3.3764L8.19497 2.72772L8.1989 2.6853C8.22068 2.45004 8.4266 2.25 8.69691 2.25C8.96877 2.25 9.17513 2.45218 9.19521 2.68877L9.36953 4.56636C9.41287 5.07774 9.43545 5.52586 9.37458 5.94532L9.37441 5.94649L9.03179 8.25H15.7358C15.7399 8.25 15.7424 8.25046 15.7436 8.25074C15.7449 8.25103 15.7458 8.25138 15.7464 8.25172C15.7471 8.25205 15.7478 8.25248 15.7485 8.25299L14.3599 13.8518C14.1949 14.5171 13.5821 15 12.8613 15H6.01384C6.00859 15 6.00576 14.9991 6.00416 14.9984C6.00254 14.9977 6.00112 14.9968 6 14.9959Z" fill="#8E8E8E"/>
</svg>
